<svg width="632" height="597" viewBox="0 0 632 597" fill="none" xmlns="http://www.w3.org/2000/svg">
<path fill-rule="evenodd" clip-rule="evenodd" d="M472.225 366.565C469.08 339.673 448.559 319.483 424.977 320.145C399.822 320.89 378.557 344.72 378.888 375.254C379.301 408.021 404.042 432.348 432.176 427.632C458.489 423.246 475.617 395.278 472.225 366.565ZM411.82 124.121C430.355 128.175 443.346 119.487 441.692 105.337C440.119 91.7671 425.473 77.4521 408.345 72.5701C390.389 67.4399 375.412 74.2251 375.578 88.54C375.743 103.517 392.375 119.818 411.82 124.121ZM298.293 195.613C300.445 173.851 279.924 153.744 251.046 149.193C220.264 144.393 189.069 158.543 182.698 182.456C175.913 208.19 200.654 232.517 235.986 234.834C269.002 236.986 295.977 218.782 298.293 195.613ZM509.046 219.609C512.522 237.813 529.154 254.114 545.289 255.272C560.68 256.265 568.954 242.861 564.486 225.981C560.266 209.845 545.62 195.53 531.139 193.213C515.997 190.814 505.737 202.233 509.046 219.609ZM148.276 517.659C112.612 552.826 60.8964 564.824 36.4864 540.91C12.0765 516.831 28.2119 469.915 68.3435 439.133C104.421 411.496 147.448 407.111 167.555 426.804C187.745 446.663 180.381 486.05 148.276 517.659ZM541.648 101.2C533.705 93.422 523.196 90.195 517.983 94.1667C512.604 98.304 515.004 108.564 523.527 117.005C532.05 125.362 543.055 128.258 547.854 123.541C552.488 118.908 549.592 108.978 541.648 101.2ZM254.769 15.5584C243.35 4.30502 221.671 -2.31463 205.37 0.746958C188.159 4.05678 183.774 16.9651 196.434 29.4597C209.094 41.8715 232.924 48.0774 248.894 43.4437C263.871 39.1409 266.188 26.7291 254.769 15.5584ZM616.781 371.199C605.362 360.028 591.875 361.435 586.248 375.005C580.373 389.403 585.586 411.827 598.246 424.239C610.906 436.651 625.138 433.341 629.772 417.702C634.075 402.891 628.2 382.37 616.781 371.199ZM457.496 175.341C432.756 151.096 393.948 143.649 367.966 160.529C338.343 179.892 336.522 222.589 367.883 253.618C399.326 284.399 445.581 285.227 468.171 258.997C487.947 235.911 482.155 199.668 457.496 175.341ZM512.522 357.96C493.739 339.508 489.354 309.306 501.683 291.847C513.019 275.794 534.533 276.456 550.751 292.343C566.886 308.147 573.34 334.957 564.487 353.492C554.805 373.599 531.306 376.33 512.522 357.96ZM335.943 81.2591C351.996 97.1463 351.499 117.088 333.461 126.604C313.85 136.864 281.497 130.989 262.796 112.537C244.013 94.0847 248.398 72.5709 270.74 64.8755C291.261 57.9249 319.808 65.4547 335.943 81.2591ZM233.256 289.199C263.293 267.519 302.928 268.843 324.607 290.109C346.286 311.457 345.293 348.113 320.056 374.427C291.592 404.049 244.261 409.511 217.534 383.28C190.807 356.967 199.578 313.609 233.256 289.199ZM521.955 163.922C513.102 173.189 493.739 169.631 479.341 155.482C464.861 141.25 462.296 123.211 472.804 115.599C482.651 108.482 500.607 113.199 513.432 125.776C526.258 138.436 530.23 155.234 521.955 163.922ZM398.333 549.682C397.506 518.735 414.883 490.519 436.065 485.306C456.173 480.424 473.88 497.8 476.693 525.189C479.672 554.15 465.357 585.262 443.347 593.868C420.013 602.97 399.244 582.531 398.333 549.682ZM586.58 228.463C583.27 217.127 588.069 209.266 597.006 210.59C605.694 211.914 615.375 221.347 619.016 232.187C622.657 243.275 618.685 251.963 609.748 251.218C600.481 250.474 589.972 240.131 586.58 228.463ZM3.96786 162.184C14.4766 142.408 49.0642 131.072 80.0938 135.54C109.468 139.76 127.176 157.137 120.722 175.424C113.854 194.703 82.4107 209.018 48.9815 206.37C13.5663 203.557 -7.2028 183.202 3.96786 162.184ZM383.853 29.295C383.605 21.0204 393.203 17.8761 404.953 21.9306C416.372 25.9024 426.053 35.3354 426.881 43.4444C427.791 51.8017 419.02 55.7735 407.022 52.05C394.61 48.1609 384.101 37.8177 383.853 29.295Z" fill="url(#paint0_linear_58_1084)"/>
<defs>
<linearGradient id="paint0_linear_58_1084" x1="35.2012" y1="104.072" x2="565.193" y2="389.384" gradientUnits="userSpaceOnUse">
<stop offset="3e-08" stop-color="#2A3EA4"/>
<stop offset="1" stop-color="#435FB8"/>
</linearGradient>
</defs>
</svg>
