<svg width="48" height="48" viewBox="0 0 48 48" fill="none" xmlns="http://www.w3.org/2000/svg">
<path d="M43.7854 42.5295C43.0291 40.2819 42.2407 38.1331 40.9206 36.5468C39.407 34.7279 37.363 33.8438 34.6722 33.8438H31.3902C32.3752 33.0416 33.2381 32.0933 33.9455 31.0312H34.6722C38.5225 31.0312 41.6549 27.877 41.6549 24C41.6549 23.4038 41.6549 18.9712 41.6549 18.375C41.6549 8.28919 33.528 0 23.5 0C13.3703 0 5.21116 8.43956 5.34672 18.6238C5.34457 21.9625 5.34504 20.3615 5.34504 24C5.34504 27.877 8.47746 31.0312 12.3277 31.0312H13.0544C13.7618 32.0933 14.6247 33.0416 15.6097 33.8438H12.3278C9.63685 33.8438 7.59289 34.7279 6.07924 36.5468C4.75915 38.1331 3.97086 40.2819 3.2144 42.5295C2.30424 45.2338 4.41477 48 7.2243 48H39.7756C42.5812 48 44.6968 45.2375 43.7854 42.5295ZM33.2756 19.7812H29.086C26.7759 19.7812 24.8965 17.8887 24.8965 15.5625C24.8965 14.7859 24.2712 14.1562 23.4999 14.1562C22.7287 14.1562 22.1034 14.7859 22.1034 15.5625C22.1034 17.8887 20.2239 19.7812 17.9138 19.7812H13.7242V18.375C13.7242 12.8954 18.1096 8.4375 23.4999 8.4375C28.8902 8.4375 33.2756 12.8954 33.2756 18.375V19.7812ZM38.8617 24C38.8617 26.0865 37.3494 27.823 35.3707 28.159C35.8223 26.8557 36.0687 25.4564 36.0687 24V19.7812H37.4652C38.2353 19.7812 38.8617 20.4121 38.8617 21.1875V24ZM8.1381 24V21.1884V21.1875C8.1381 20.4121 8.76458 19.7812 9.53463 19.7812H10.9312V24C10.9312 25.4564 11.1775 26.8557 11.6291 28.159C9.65045 27.823 8.1381 26.0865 8.1381 24ZM11.008 16.9688H9.53463C9.06158 16.9688 8.60715 17.0493 8.18269 17.1954C8.7724 9.24262 15.3771 2.8125 23.4999 2.8125C31.5788 2.8125 38.221 9.16322 38.8179 17.1956C38.3933 17.0493 37.9385 16.9688 37.4652 16.9688H35.9919C35.2996 10.5977 29.9618 5.625 23.4999 5.625C17.038 5.625 11.7003 10.5977 11.008 16.9688ZM13.7242 24V22.5938H17.9138C20.1955 22.5938 22.225 21.4858 23.4999 19.7764C24.7749 21.4858 26.8043 22.5938 29.086 22.5938H33.2756V24C33.2756 25.5089 32.9363 26.9394 32.3311 28.2188H26.293C25.5217 28.2188 24.8965 28.8484 24.8965 29.625C24.8965 30.4016 25.5217 31.0219 26.293 31.0219H30.334C28.5701 32.7606 26.1574 33.8438 23.4999 33.8438C18.1096 33.8438 13.7242 29.4278 13.7242 24ZM7.2243 45.1875C6.30865 45.1875 5.56979 44.2939 5.85971 43.4322C7.40986 38.8262 8.55324 36.6562 12.3277 36.6562H14.4189L20.7206 45.1875H7.2243ZM17.9 36.6562H29.0999L23.4999 44.2375L17.9 36.6562ZM39.7756 45.1875H26.2792L32.5809 36.6562H34.6722C38.4466 36.6562 39.59 38.8262 41.1402 43.4322C41.4297 44.2926 40.6924 45.1875 39.7756 45.1875Z" fill="#2A3EA4"/>
</svg>
