<svg width="48" height="48" viewBox="0 0 48 48" fill="none" xmlns="http://www.w3.org/2000/svg">
<path d="M41.0756 13.1662H33.3093V11.0556C33.3093 8.81935 31.4747 7 29.2197 7H4.23087C1.9759 7 0.141306 8.81925 0.141306 11.0469L2.53105e-05 39.9805C-0.00222469 40.3537 0.145619 40.7123 0.410744 40.977C0.676056 41.2417 1.03681 41.3905 1.41302 41.3905H5.9149C6.52793 43.4733 8.46958 45 10.7652 45C13.0609 45 15.0025 43.4734 15.6156 41.3905H34.3911C35.0041 43.4733 36.9458 45 39.2414 45C41.5371 45 43.4787 43.4734 44.0918 41.3905H46.5868C47.3673 41.3905 48 40.763 48 39.9891V20.033C48 16.2467 44.8939 13.1662 41.0756 13.1662ZM10.7654 42.1972C9.53768 42.1972 8.53877 41.2066 8.53877 39.9891C8.53877 38.7715 9.53768 37.7809 10.7654 37.7809C11.9932 37.7809 12.9921 38.7715 12.9921 39.9891C12.9921 41.2066 11.9932 42.1972 10.7654 42.1972ZM30.483 38.5878H15.6158C15.0028 36.5049 13.0611 34.9782 10.7655 34.9782C8.46986 34.9782 6.52821 36.5048 5.91518 38.5877H2.83502L2.89652 22.5967H18.4825L16.5764 24.4869C16.0245 25.0342 16.0245 25.9214 16.5764 26.4687C16.8523 26.7424 17.214 26.8793 17.5756 26.8793C17.9372 26.8793 18.299 26.7425 18.5748 26.4687L22.8932 22.1862C23.1582 21.9234 23.3072 21.567 23.3072 21.1953C23.3072 20.8236 23.1582 20.4673 22.8932 20.2045L18.5748 15.9219C18.023 15.3746 17.1282 15.3746 16.5763 15.9219C16.0244 16.4693 16.0244 17.3565 16.5763 17.9038L18.4823 19.7939H2.91377L2.96759 11.0557C2.96759 10.3649 3.53421 9.80288 4.23087 9.80288H29.2198C29.9164 9.80288 30.4831 10.3648 30.4831 11.0557L30.483 38.5878ZM39.2415 42.1972C38.0138 42.1972 37.0149 41.2066 37.0149 39.9891C37.0149 38.7715 38.0138 37.7809 39.2415 37.7809C40.4693 37.7809 41.4682 38.7715 41.4682 39.9891C41.4681 41.2066 40.4693 42.1972 39.2415 42.1972ZM45.1737 38.5877H44.0918C43.4788 36.5049 41.5372 34.9782 39.2415 34.9782C36.9459 34.9782 35.0042 36.5048 34.3912 38.5877H33.3094V15.969H35.6116V20.7699C35.6116 23.4772 37.8326 25.6798 40.5626 25.6798H45.1739L45.1737 38.5877ZM45.1737 22.877H40.5624C39.3909 22.877 38.4377 21.9318 38.4377 20.7699V15.969H41.0755C43.3354 15.969 45.1736 17.7921 45.1736 20.033L45.1737 22.877Z" fill="#2A3EA4"/>
</svg>
