<svg width="48" height="48" viewBox="0 0 48 48" fill="none" xmlns="http://www.w3.org/2000/svg">
<path fill-rule="evenodd" clip-rule="evenodd" d="M46.7524 29.255C46.7524 29.9953 46.1523 30.5954 45.412 30.5954H44.0713V33.2764H45.412C46.1523 33.2764 46.7524 33.8766 46.7524 34.6168V42.6596C46.7524 43.3999 46.1523 44 45.412 44H2.3404C1.60014 44 1 43.3999 1 42.6596V34.6168C1 33.8766 1.60014 33.2764 2.3404 33.2764H3.68107V30.5954H2.3404C1.60014 30.5954 1 29.9953 1 29.255V5.12761C1 4.38735 1.60014 3.7872 2.3404 3.7872H3.68107V3.3404C3.68107 2.60014 4.28122 2 5.02148 2C5.76174 2 6.36188 2.60014 6.36188 3.3404V3.7872H41.3905V3.3404C41.3905 2.60014 41.9907 2 42.7309 2C43.4712 2 44.0713 2.60014 44.0713 3.3404V3.7872H45.412C46.1523 3.7872 46.7524 4.38735 46.7524 5.12761V29.255ZM38.7101 6.46801H26.5571V22.5527H38.7101V6.46801ZM23.8763 6.46801H3.68081V27.9146H44.0716V6.46801H41.3909V23.8931C41.3909 24.6333 40.7908 25.2335 40.0505 25.2335H25.2167C24.4764 25.2335 23.8763 24.6333 23.8763 23.8931V6.46801ZM3.68081 41.3192H44.0716V35.9572H3.68081V41.3192ZM6.36188 33.2764H41.3905V30.5954H6.36188V33.2764ZM32.8976 13.1736H34.4321C34.8871 13.1736 35.311 13.4044 35.5579 13.7866C35.8049 14.1688 35.8411 14.6501 35.654 15.0649L33.8444 19.079C33.6208 19.5751 33.1326 19.8689 32.6216 19.8689C32.4374 19.8689 32.2503 19.8307 32.0715 19.7501C31.3967 19.4459 31.0962 18.6522 31.4004 17.9773L32.3575 15.8545H30.835C30.3814 15.8545 29.9584 15.625 29.7112 15.2445C29.4638 14.864 29.4258 14.3843 29.6102 13.9697L31.3976 9.94811C31.6982 9.27166 32.4905 8.96676 33.1668 9.26763C33.8433 9.56824 34.1479 10.3604 33.8473 11.0369L32.8976 13.1736ZM7.7911 19.8725H19.8545C20.5948 19.8725 21.195 19.2723 21.195 18.5321V10.4897C21.195 9.7494 20.5948 9.14926 19.8545 9.14926H7.7911C7.05084 9.14926 6.4507 9.7494 6.4507 10.4897V18.5321C6.4507 19.2723 7.05084 19.8725 7.7911 19.8725ZM9.1315 11.8301H18.5141V17.1917H9.1315V11.8301ZM19.8545 25.2343H7.7911C7.05084 25.2343 6.4507 24.6343 6.4507 23.8939C6.4507 23.1537 7.05084 22.5535 7.7911 22.5535H19.8545C20.5948 22.5535 21.195 23.1537 21.195 23.8939C21.195 24.6342 20.5948 25.2343 19.8545 25.2343Z" fill="#2A3EA4"/>
</svg>
