<svg width="50" height="89" viewBox="0 0 50 89" xmlns="http://www.w3.org/2000/svg">
    <symbol class="lightning" id="lightning" viewBox="0 0 50 89">
        <path d="M49.8623 30.5241C49.6212 30.0019 49.102 29.6668 48.53 29.6668H31.1035L48.302 2.27698C48.5887 1.82016 48.6063 1.24166 48.3477 0.768496C48.0888 0.29377 47.5946 0 47.0593 0H23.53C22.9726 0 22.4637 0.317411 22.2139 0.820297L0.155068 45.3204C-0.0729303 45.7788 -0.0479419 46.3246 0.219693 46.7621C0.488879 47.1996 0.960903 47.4666 1.47118 47.4666H16.5932L0.115258 86.9412C-0.165647 87.6161 0.0844107 88.3992 0.703435 88.782C0.941601 88.9289 1.20631 89 1.46963 89C1.89168 89 2.30787 88.8175 2.59618 88.4735L49.655 32.1066C50.0239 31.6648 50.1034 31.0477 49.8623 30.5241Z" />
    </symbol>
</svg>
