<svg width="48" height="48" viewBox="0 0 48 48" fill="none" xmlns="http://www.w3.org/2000/svg">
<path d="M4.8493 46.1566C4.84963 46.1573 4.84995 46.1576 4.85061 46.158C4.85159 46.1589 4.85258 46.1596 4.85356 46.1606C7.31076 48.6102 11.2879 48.6198 13.7582 46.1494L24.4246 35.3787C24.6716 35.6258 26.1731 37.1198 35.2474 46.1537C37.7092 48.6152 41.6932 48.6155 44.155 46.1537C44.1557 46.153 44.156 46.1527 44.1566 46.1521C44.157 46.1517 44.1573 46.1517 44.1573 46.1514C44.158 46.1507 44.1586 46.1498 44.1593 46.1491C46.6109 43.6929 46.6096 39.7003 44.1534 37.2441L31.5636 24.7107L37.4251 18.9411H40.4722C40.9337 18.9411 41.3586 18.6881 41.579 18.2823L45.8472 10.4239C46.1135 9.93373 46.0256 9.32648 45.631 8.93182L42.0679 5.36904C41.6735 4.97437 41.0663 4.88645 40.5758 5.15284L32.7174 9.42096C32.3116 9.64142 32.0589 10.0663 32.0589 10.5279V13.5654L24.4328 21.1184L20.1236 16.7814C21.2272 13.6733 20.5377 10.0659 18.0545 7.58282C15.4162 4.94452 11.3827 4.25165 8.01741 5.85949C7.64834 6.03566 7.38819 6.38013 7.31897 6.78332C7.24974 7.18619 7.38064 7.59758 7.66967 7.88693L11.8194 12.0366L10.038 13.818L5.88828 9.66832C5.59892 9.3793 5.18753 9.2484 4.78467 9.31762C4.38148 9.38684 4.03701 9.64733 3.86084 10.0161C2.25333 13.3814 2.94587 17.4149 5.58416 20.0535C8.043 22.5124 11.6392 23.2361 14.7772 22.1243L17.3118 24.6753C16.9001 25.0906 5.283 36.8055 4.84635 37.2461C2.38488 39.7076 2.38422 43.6919 4.84635 46.1537L4.8493 46.1566ZM11.9722 44.3723C10.7873 45.5573 9.04393 45.7722 7.66343 45.1082L17.2928 35.385L19.0912 37.1838L11.9722 44.3723ZM37.0268 44.3703L29.7727 37.1483L31.5426 35.3784L41.3261 45.1114C39.922 45.7784 38.1888 45.532 37.0268 44.3703ZM42.3736 39.0278C43.5359 40.1898 43.7804 41.9269 43.1095 43.332L33.3243 33.597L35.1175 31.8038L42.3736 39.0278ZM33.3318 30.0264C32.7531 30.6047 28.55 34.8082 27.9873 35.3709L24.4164 31.8156C24.541 31.6913 23.4646 32.7647 29.7681 26.4783L33.3318 30.0264ZM34.5785 11.2775L40.9515 7.81574L43.1843 10.0482L39.7225 16.4215H37.4307C36.5718 15.5627 35.3898 14.3806 34.5785 13.5693V11.2775ZM33.3144 15.8681C33.941 16.4947 34.4797 17.0337 35.1204 17.6741C32.3877 20.3563 28.6441 24.0323 27.9801 24.6888L26.2086 22.9057L33.3144 15.8681ZM7.36555 18.2718C5.9411 16.8474 5.31056 14.8531 5.58318 12.9267L9.14727 16.4904C9.63871 16.9822 10.4369 16.9822 10.9287 16.4904L14.4918 12.9273C14.9835 12.4355 14.9835 11.6377 14.4918 11.1459L10.928 7.58216C12.8544 7.30888 14.8484 7.93975 16.2732 9.36421C18.729 11.8201 18.729 15.8163 16.2732 18.2718C13.8173 20.7277 9.82144 20.7277 7.36555 18.2718ZM17.0959 20.8835C17.4302 20.6332 17.7511 20.357 18.0549 20.0535C18.356 19.7524 18.6303 19.4341 18.8783 19.1028C22.7924 23.0419 25.997 26.2684 26.1987 26.4701L24.4173 28.2519L17.0959 20.8835ZM19.0735 26.4767L22.633 30.0362L21.7423 30.9269C21.2496 31.4193 21.2505 32.2188 21.7439 32.7103L22.6392 33.6013L20.8644 35.3935C20.2824 34.8115 16.0832 30.6126 15.5255 30.0549L19.0735 26.4767ZM6.63134 39.0239L13.7513 31.8438L15.5111 33.6036L5.88532 43.3232C5.23215 41.9522 5.4408 40.2147 6.63134 39.0239Z" fill="#2A3EA4"/>
</svg>
