<svg width="186" height="37" viewBox="0 0 186 37" fill="none" xmlns="http://www.w3.org/2000/svg">
<path fill-rule="evenodd" clip-rule="evenodd" d="M25.6641 19.3762C27.0914 19.3361 28.3334 20.5581 28.5237 22.1857C28.729 23.9235 27.6924 25.6162 26.0998 25.8816C24.3971 26.167 22.8997 24.6947 22.8747 22.7115C22.8546 20.8636 24.1417 19.4212 25.6641 19.3762ZM26.6757 6.37537C26.7759 7.23174 25.9896 7.75758 24.8678 7.51219C23.691 7.25177 22.6844 6.26519 22.6743 5.35874C22.6643 4.49235 23.5708 4.0817 24.6575 4.39219C25.6942 4.68767 26.5806 5.55405 26.6757 6.37537ZM15.1373 9.02962C16.8851 9.30506 18.1271 10.522 17.9969 11.8391C17.8566 13.2414 16.224 14.3431 14.2258 14.2129C12.0874 14.0727 10.59 12.6003 11.0007 11.0428C11.3863 9.59552 13.2743 8.73915 15.1373 9.02962ZM32.9458 15.4499C31.9692 15.3798 30.9626 14.3932 30.7523 13.2914C30.5519 12.2398 31.1729 11.5486 32.0894 11.6939C32.9658 11.8341 33.8522 12.7005 34.1076 13.6771C34.3781 14.6987 33.8773 15.51 32.9458 15.4499ZM2.1515 32.7376C3.62886 34.1849 6.75887 33.4587 8.91733 31.3303C10.8604 29.4172 11.3061 27.0334 10.0842 25.8315C8.86725 24.6396 6.26308 24.905 4.07959 26.5777C1.6507 28.4407 0.674137 31.2802 2.1515 32.7376ZM31.2931 5.69929C31.6086 5.4589 32.2446 5.65421 32.7254 6.12497C33.2062 6.59572 33.3815 7.19668 33.101 7.47713C32.8106 7.76259 32.1445 7.58731 31.6287 7.0815C31.1128 6.57068 30.9676 5.94969 31.2931 5.69929ZM12.3729 0.0452377C13.3594 -0.140059 14.6715 0.260582 15.3626 0.941672C16.0537 1.61775 15.9135 2.36896 15.0071 2.62937C14.0405 2.90982 12.5982 2.53422 11.832 1.78302C11.0658 1.02681 11.3312 0.245558 12.3729 0.0452377ZM35.4247 22.6965C35.7653 21.8752 36.5816 21.79 37.2727 22.4661C37.9638 23.1422 38.3194 24.3842 38.0589 25.2806C37.7785 26.2271 36.9171 26.4275 36.1509 25.6763C35.3847 24.9251 35.0692 23.5679 35.4247 22.6965ZM61.7275 15.4991H55.6402V18.4751H61.7275C61.5651 19.0523 61.3307 19.5933 61.024 20.0984C60.7174 20.5853 60.3567 21.0092 59.9419 21.3699C59.527 21.7307 59.0581 22.0192 58.535 22.2357C58.03 22.4341 57.4709 22.5333 56.8576 22.5333C56.2805 22.5333 55.7574 22.4521 55.2885 22.2898C54.8195 22.1275 54.3957 21.92 54.0169 21.6675C53.6562 21.397 53.3496 21.1174 53.0971 20.8288C52.8446 20.5222 52.6552 20.2336 52.5289 19.9631H49.1471C49.3455 20.6665 49.6702 21.3609 50.1211 22.0463C50.572 22.7317 51.1221 23.3449 51.7714 23.886C52.4387 24.4091 53.1963 24.8329 54.044 25.1576C54.9097 25.4822 55.8476 25.6445 56.8576 25.6445C57.9759 25.6445 59.031 25.4281 60.023 24.9952C61.0331 24.5443 61.9078 23.9311 62.6473 23.1555C63.4048 22.3619 64 21.4421 64.4329 20.396C64.8838 19.3499 65.1093 18.2136 65.1093 16.9871C65.1093 15.7787 64.8838 14.6514 64.4329 13.6053C64 12.5411 63.4048 11.6213 62.6473 10.8457C61.9078 10.0521 61.0331 9.43887 60.023 9.006C59.031 8.55509 57.9759 8.32963 56.8576 8.32963C55.8837 8.32963 54.9728 8.49196 54.1251 8.81662C53.2955 9.14127 52.556 9.57414 51.9067 10.1152C51.2574 10.6563 50.7072 11.2786 50.2563 11.982C49.8054 12.6854 49.4808 13.4069 49.2824 14.1464H52.6642C52.7724 13.8397 52.9438 13.5331 53.1782 13.2265C53.4127 12.9019 53.7013 12.6133 54.044 12.3608C54.4047 12.0902 54.8195 11.8738 55.2885 11.7115C55.7574 11.5311 56.2805 11.4409 56.8576 11.4409C57.4709 11.4409 58.03 11.5491 58.535 11.7656C59.0581 11.964 59.527 12.2435 59.9419 12.6043C60.3567 12.965 60.7174 13.3979 61.024 13.9029C61.3307 14.3899 61.5651 14.9219 61.7275 15.4991ZM78.6239 25.5093V13.0642H75.5126V17.6635H70.5075V13.0642H67.3962V25.5093H70.5075V20.6395H75.5126V25.5093H78.6239ZM88.8611 13.4429C88.1216 13.1003 87.328 12.9289 86.4803 12.9289C85.7408 12.9289 85.0464 13.0642 84.3971 13.3347C83.7477 13.5872 83.1706 13.9299 82.6656 14.3628C82.1786 14.7957 81.7728 15.2917 81.4481 15.8508C81.1235 16.3919 80.907 16.951 80.7988 17.5282H83.9101C84.0363 17.2216 84.2077 16.951 84.4241 16.7165C84.6225 16.5181 84.884 16.3378 85.2087 16.1755C85.5333 15.9951 85.9572 15.9049 86.4803 15.9049C87.0935 15.9049 87.5895 16.0312 87.9683 16.2837C88.3651 16.5181 88.6717 16.7797 88.8881 17.0683C89.1406 17.3929 89.33 17.7717 89.4563 18.2045H85.6686V20.3689H89.4563C89.33 20.8198 89.1406 21.2076 88.8881 21.5323C88.6717 21.8208 88.3651 22.0824 87.9683 22.3168C87.5895 22.5513 87.0935 22.6685 86.4803 22.6685C85.9572 22.6685 85.5333 22.5874 85.2087 22.4251C84.884 22.2447 84.6225 22.0553 84.4241 21.8569C84.2077 21.6224 84.0363 21.3519 83.9101 21.0453H80.7988C80.907 21.6224 81.1235 22.1906 81.4481 22.7497C81.7728 23.2908 82.1786 23.7778 82.6656 24.2107C83.1706 24.6435 83.7477 24.9952 84.3971 25.2658C85.0464 25.5183 85.7408 25.6445 86.4803 25.6445C87.328 25.6445 88.1216 25.4822 88.8611 25.1576C89.6186 24.8149 90.2769 24.3549 90.836 23.7778C91.4132 23.2006 91.8641 22.5333 92.1888 21.7757C92.5315 21.0002 92.7028 20.1705 92.7028 19.2867C92.7028 18.4029 92.5315 17.5823 92.1888 16.8248C91.8641 16.0492 91.4132 15.3728 90.836 14.7957C90.2769 14.2185 89.6186 13.7676 88.8611 13.4429ZM103.582 13.4159C102.878 13.0912 102.139 12.9289 101.363 12.9289C100.822 12.9289 100.335 13.0011 99.9025 13.1453C99.4696 13.2896 99.0999 13.4429 98.7933 13.6053C98.4325 13.8037 98.1169 14.0291 97.8463 14.2816L97.3052 13.0642H95.0056V29.838H98.1169V24.4271C98.3694 24.6616 98.658 24.869 98.9826 25.0493C99.2712 25.1936 99.6049 25.3289 99.9837 25.4552C100.38 25.5814 100.84 25.6445 101.363 25.6445C102.139 25.6445 102.878 25.4912 103.582 25.1846C104.285 24.86 104.899 24.4181 105.422 23.8589C105.963 23.2818 106.387 22.6054 106.693 21.8299C107.018 21.0543 107.18 20.2066 107.18 19.2867C107.18 18.3669 107.018 17.5192 106.693 16.7436C106.387 15.968 105.963 15.3007 105.422 14.7416C104.899 14.1644 104.285 13.7225 103.582 13.4159ZM98.7391 21.7487C98.1439 21.1355 97.8463 20.3148 97.8463 19.2867C97.8463 18.2587 98.1439 17.438 98.7391 16.8248C99.3343 16.2115 100.074 15.9049 100.958 15.9049C101.841 15.9049 102.581 16.2115 103.176 16.8248C103.771 17.438 104.069 18.2587 104.069 19.2867C104.069 20.3148 103.771 21.1355 103.176 21.7487C102.581 22.3619 101.841 22.6685 100.958 22.6685C100.074 22.6685 99.3343 22.3619 98.7391 21.7487ZM112.595 16.0402H118.006V13.0642H109.484V25.5093H112.595V16.0402ZM122.957 21.7487C122.362 21.1355 122.064 20.3148 122.064 19.2867C122.064 18.2587 122.362 17.438 122.957 16.8248C123.552 16.2115 124.292 15.9049 125.176 15.9049C126.059 15.9049 126.799 16.2115 127.394 16.8248C127.989 17.438 128.287 18.2587 128.287 19.2867C128.287 20.3148 127.989 21.1355 127.394 21.7487C126.799 22.3619 126.059 22.6685 125.176 22.6685C124.292 22.6685 123.552 22.3619 122.957 21.7487ZM130.884 21.7757C131.227 21.0002 131.398 20.1705 131.398 19.2867C131.398 18.4029 131.227 17.5823 130.884 16.8248C130.56 16.0492 130.109 15.3728 129.531 14.7957C128.972 14.2185 128.314 13.7676 127.556 13.4429C126.817 13.1003 126.023 12.9289 125.176 12.9289C124.328 12.9289 123.525 13.1003 122.768 13.4429C122.028 13.7676 121.37 14.2185 120.793 14.7957C120.234 15.3728 119.783 16.0492 119.44 16.8248C119.115 17.5823 118.953 18.4029 118.953 19.2867C118.953 20.1705 119.115 21.0002 119.44 21.7757C119.783 22.5333 120.234 23.2006 120.793 23.7778C121.37 24.3549 122.028 24.8149 122.768 25.1576C123.525 25.4822 124.328 25.6445 125.176 25.6445C126.023 25.6445 126.817 25.4822 127.556 25.1576C128.314 24.8149 128.972 24.3549 129.531 23.7778C130.109 23.2006 130.56 22.5333 130.884 21.7757ZM142.586 8.92483C141.883 8.61822 141.125 8.46491 140.314 8.46491H133.956V25.5093H137.202V19.8278H140.314C141.125 19.8278 141.883 19.6835 142.586 19.3949C143.29 19.0883 143.903 18.6825 144.426 18.1775C144.967 17.6544 145.382 17.0502 145.67 16.3648C145.977 15.6614 146.13 14.9219 146.13 14.1464C146.13 13.3708 145.977 12.6403 145.67 11.9549C145.382 11.2515 144.967 10.6473 144.426 10.1423C143.903 9.61924 143.29 9.21342 142.586 8.92483ZM141.287 16.5001C140.981 16.6444 140.656 16.7165 140.314 16.7165H137.202V11.5762H140.314C140.656 11.5762 140.981 11.6483 141.287 11.7926C141.594 11.9369 141.865 12.1263 142.099 12.3608C142.334 12.5952 142.523 12.8658 142.667 13.1724C142.812 13.479 142.884 13.8037 142.884 14.1464C142.884 14.4891 142.812 14.8137 142.667 15.1203C142.523 15.4269 142.334 15.6975 142.099 15.932C141.865 16.1664 141.594 16.3558 141.287 16.5001ZM157.281 24.4C157.768 24.0213 158.174 23.5974 158.498 23.1285C158.841 22.6595 159.094 22.1906 159.256 21.7216H156.009C155.865 21.902 155.685 22.0643 155.468 22.2086C155.27 22.3349 155.026 22.4431 154.738 22.5333C154.467 22.6235 154.125 22.6685 153.71 22.6685C152.898 22.6685 152.258 22.4611 151.789 22.0463C151.32 21.6315 151.013 21.1174 150.869 20.5042H159.526C159.545 20.3779 159.563 20.2427 159.581 20.0984L159.635 19.7196C159.653 19.5753 159.662 19.431 159.662 19.2867C159.662 18.3488 159.499 17.4921 159.175 16.7165C158.868 15.9229 158.444 15.2466 157.903 14.6875C157.362 14.1283 156.731 13.6955 156.009 13.3888C155.288 13.0822 154.521 12.9289 153.71 12.9289C152.862 12.9289 152.059 13.1003 151.302 13.4429C150.562 13.7676 149.904 14.2185 149.327 14.7957C148.768 15.3728 148.317 16.0492 147.974 16.8248C147.65 17.5823 147.487 18.4029 147.487 19.2867C147.487 20.1705 147.65 21.0002 147.974 21.7757C148.317 22.5333 148.768 23.2006 149.327 23.7778C149.904 24.3549 150.562 24.8149 151.302 25.1576C152.059 25.4822 152.862 25.6445 153.71 25.6445C154.413 25.6445 155.062 25.5273 155.658 25.2928C156.271 25.0584 156.812 24.7608 157.281 24.4ZM151.708 16.6083C152.231 16.1394 152.898 15.9049 153.71 15.9049C154.521 15.9049 155.18 16.1394 155.685 16.6083C156.208 17.0773 156.541 17.6544 156.686 18.3398H150.734C150.878 17.6544 151.203 17.0773 151.708 16.6083ZM170.071 25.5093H173.183V13.0642H170.071V17.6635H165.066V13.0642H161.955V25.5093H165.066V20.6395H170.071V25.5093ZM185.503 13.0642H175.087V16.0402H178.739V25.5093H181.851V16.0402H185.503V13.0642ZM27.6323 10.6121C26.1349 9.14478 23.7862 8.69406 22.2136 9.71569C20.4208 10.8876 20.3106 13.4717 22.2086 15.3497C24.1117 17.2127 26.9112 17.2628 28.2783 15.6752C29.4753 14.278 29.1247 12.0845 27.6323 10.6121ZM30.9626 21.6648C29.8258 20.548 29.5604 18.7201 30.3066 17.6634C30.9927 16.6919 32.2948 16.7319 33.2763 17.6935C34.2529 18.65 34.6435 20.2726 34.1077 21.3944C33.5217 22.6113 32.0995 22.7766 30.9626 21.6648ZM20.2755 4.91802C21.2471 5.87956 21.217 7.08649 20.1253 7.66241C18.9384 8.2834 16.9803 7.92783 15.8484 6.81105C14.7116 5.69426 14.9771 4.39218 16.3292 3.92643C17.5712 3.50576 19.299 3.96149 20.2755 4.91802ZM14.0606 17.5032C15.8785 16.1911 18.2773 16.2712 19.5894 17.5582C20.9015 18.8503 20.8414 21.0689 19.314 22.6614C17.5912 24.4543 14.7267 24.7848 13.1091 23.1973C11.4915 21.6047 12.0223 18.9805 14.0606 17.5032ZM31.5336 9.92102C30.9977 10.4819 29.8258 10.2666 28.9544 9.4102C28.078 8.54883 27.9228 7.45708 28.5588 6.99634C29.1547 6.56566 30.2415 6.85111 31.0177 7.61233C31.794 8.37856 32.0344 9.39518 31.5336 9.92102ZM24.0516 33.2684C24.0015 31.3954 25.0532 29.6876 26.3352 29.3721C27.5522 29.0767 28.6239 30.1283 28.7942 31.786C28.9745 33.5388 28.1081 35.4218 26.7759 35.9426C25.3637 36.4935 24.1067 35.2565 24.0516 33.2684ZM35.4448 13.8273C35.2445 13.1412 35.535 12.6654 36.0758 12.7455C36.6017 12.8257 37.1876 13.3966 37.4079 14.0526C37.6283 14.7237 37.3879 15.2495 36.847 15.2045C36.2862 15.1594 35.6501 14.5334 35.4448 13.8273ZM0.183377 9.81585C0.819395 8.61894 2.91274 7.93284 4.79075 8.20327C6.5686 8.45868 7.64031 9.51037 7.24969 10.6171C6.83402 11.784 4.93097 12.6504 2.90774 12.4901C0.764307 12.3199 -0.492705 11.0879 0.183377 9.81585ZM23.1752 1.77299C23.1601 1.27219 23.7411 1.08188 24.4522 1.32728C25.1433 1.56766 25.7293 2.13857 25.7793 2.62936C25.8344 3.13517 25.3036 3.37555 24.5774 3.15019C23.8262 2.91482 23.1902 2.28882 23.1752 1.77299Z" fill="#7D82A0"/>
</svg>
