<svg width="48" height="48" viewBox="0 0 48 48" fill="none" xmlns="http://www.w3.org/2000/svg">
<path d="M41.3984 16.0508C42.283 16.0508 43 15.3338 43 14.4492V11.4062C43 7.87384 40.1262 5 36.5938 5H8.40625C4.87384 5 2 7.87384 2 11.4062V39.5938C2 43.1262 4.87384 46 8.40625 46H36.5938C39.3556 46 41.7983 44.2406 42.6718 41.6221C42.9517 40.783 42.4984 39.8759 41.6593 39.596C40.8202 39.3159 39.9131 39.7694 39.6333 40.6084C39.1966 41.9174 37.9751 42.7969 36.5938 42.7969H8.40625C6.64005 42.7969 5.20312 41.36 5.20312 39.5938V20.7411C5.70425 20.9188 6.24342 21.0156 6.80469 21.0156H36.5938C38.36 21.0156 39.7969 22.4525 39.7969 24.2188V27.1816H34.4316C28.056 27.4463 28.0609 36.5287 34.4316 36.791H41.3984C42.283 36.791 43 36.0739 43 35.1895V24.2188C43 20.6863 40.1262 17.8125 36.5938 17.8125H6.80469C4.67949 17.7243 4.68118 14.6969 6.80469 14.6094H34.9922C37.1171 14.5248 37.1155 11.4901 34.9922 11.4062H6.80469C6.24342 11.4062 5.70425 11.503 5.20312 11.6807V11.4062C5.20312 9.64005 6.64005 8.20312 8.40625 8.20312H36.5938C38.36 8.20312 39.7969 9.64005 39.7969 11.4062V14.4492C39.7969 15.3338 40.5139 16.0508 41.3984 16.0508ZM39.7969 33.5879H34.4316C32.3064 33.4996 32.308 30.4722 34.4316 30.3848H39.7969V33.5879Z" fill="#2A3EA4"/>
</svg>
