<svg width="48" height="48" viewBox="0 0 48 48" fill="none" xmlns="http://www.w3.org/2000/svg">
<path fill-rule="evenodd" clip-rule="evenodd" d="M32.5645 9.22533H38.6457C42.1498 9.22533 45 12.0759 45 15.5796V39.1557C45 41.6498 42.971 43.6791 40.4766 43.6791C37.9823 43.6791 35.9529 41.6498 35.9529 39.1557V24.626C35.9529 23.6916 35.1931 22.9314 34.2587 22.9314H32.5645V45.975C32.5645 46.7563 31.931 47.3898 31.1498 47.3898H6.41475C5.6335 47.3898 5 46.7563 5 45.975V5.05031C5 2.60197 6.99186 0.610107 9.4402 0.610107H28.1243C30.5726 0.610107 32.5645 2.60197 32.5645 5.05031V9.22533ZM7.82915 44.5606H29.7354V5.05031C29.7354 4.16198 29.0126 3.43926 28.1243 3.43926H9.4402C8.55188 3.43926 7.82915 4.16198 7.82915 5.05031V44.5606ZM42.1708 15.5796C42.1708 14.1388 41.3018 12.8971 40.0605 12.3511V16.1371C40.0605 17.5779 40.9296 18.8195 42.1708 19.3656V15.5796ZM38.7821 39.1557C38.7821 40.0897 39.5423 40.8499 40.4766 40.8499C41.4107 40.8499 42.1708 40.0897 42.1708 39.1557V22.3307C39.346 21.6854 37.2313 19.1547 37.2313 16.1371V12.0545H32.5645V20.1022H34.2587C36.7531 20.1022 38.7821 22.1316 38.7821 24.6256V39.1557ZM26.2681 5.233H11.2968C10.5155 5.233 9.88205 5.8665 9.88205 6.64776V17.6489C9.88205 18.4298 10.5155 19.0633 11.2968 19.0633H26.2681C27.0493 19.0633 27.6828 18.4298 27.6828 17.6489V6.64776C27.6828 5.8665 27.0497 5.233 26.2681 5.233ZM24.8537 16.2341H12.7112V8.06216H24.8537V16.2341ZM18.7824 24.3776C18.2596 24.3776 17.7795 24.6659 17.5336 25.1274C16.6824 26.727 13.9047 32.1095 13.9047 34.2116C13.9047 36.9016 16.0928 39.0897 18.7824 39.0897C21.472 39.0897 23.6606 36.9016 23.6606 34.2116C23.6606 32.1095 20.8828 26.727 20.0312 25.1274C19.7857 24.6659 19.3053 24.3776 18.7824 24.3776ZM18.7824 36.2606C17.6528 36.2606 16.7338 35.3416 16.7338 34.2116C16.7338 33.5035 17.6607 31.2518 18.7824 28.9241C19.9042 31.2518 20.831 33.5039 20.831 34.2116C20.831 35.3412 19.912 36.2606 18.7824 36.2606Z" fill="#2A3EA4"/>
</svg>
