<svg width="343" height="609" viewBox="0 0 343 609" fill="none" xmlns="http://www.w3.org/2000/svg">
<path d="M342.055 208.867C340.401 205.294 336.839 203.001 332.916 203.001H213.37L331.352 15.5807C333.319 12.4548 333.439 8.49628 331.665 5.25858C329.889 2.01018 326.499 0 322.827 0H161.416C157.592 0 154.101 2.17195 152.387 5.61304L1.06377 310.114C-0.500302 313.25 -0.328881 316.985 1.5071 319.979C3.35371 322.973 6.59179 324.8 10.0923 324.8H113.829L0.790671 594.912C-1.13634 599.531 0.579057 604.889 4.82557 607.508C6.45938 608.514 8.27526 609 10.0817 609C12.9769 609 15.832 607.751 17.8098 605.397L340.633 219.696C343.164 216.672 343.709 212.45 342.055 208.867Z" fill="url(#paint0_linear_490_796)"/>
<defs>
<linearGradient id="paint0_linear_490_796" x1="171.5" y1="0" x2="171.5" y2="609" gradientUnits="userSpaceOnUse">
<stop stop-color="#E5E5E7"/>
<stop offset="1" stop-color="#E5E5E7" stop-opacity="0"/>
</linearGradient>
</defs>
</svg>
