<svg width="48" height="48" viewBox="0 0 48 48" fill="none" xmlns="http://www.w3.org/2000/svg">
<g clip-path="url(#clip0_50_210)">
<path fill-rule="evenodd" clip-rule="evenodd" d="M45.3127 26.0402L47.4346 27.8706C47.9559 28.3197 48.1383 29.0484 47.8909 29.6907L45.5018 35.8807C45.2531 36.5257 44.6048 36.9508 43.9342 36.9226L41.1193 36.8396C40.1186 38.2003 38.9518 39.4258 37.6339 40.497L37.8419 43.3195C37.8924 44.0086 37.5031 44.6541 36.87 44.9311L30.7885 47.5917C30.1636 47.8659 29.4333 47.7204 28.9603 47.2268L27.0006 45.1836C25.3402 45.4193 23.6521 45.4623 21.9607 45.3124L20.1298 47.4349C19.8137 47.8013 19.3603 48.0007 18.8961 48.0007C18.6996 48.0007 18.5008 47.9654 18.3097 47.8915L12.1197 45.5024C11.4752 45.2537 11.0576 44.6255 11.0782 43.9348L11.1607 41.1199C9.80106 40.1198 8.57555 38.9524 7.5037 37.6346L4.68068 37.8425C3.99002 37.8887 3.34549 37.5037 3.06855 36.8706L0.407903 30.7892C0.134245 30.1637 0.279746 29.4339 0.772781 28.9609L2.81589 27.0014C2.58029 25.3415 2.53679 23.6528 2.6867 21.9614L0.564748 20.1299C0.0440568 19.6803 -0.138382 18.9522 0.109214 18.3098L2.49826 12.12C2.74698 11.4754 3.3632 11.0524 4.06587 11.0785L6.88073 11.161C7.88039 9.80132 9.04834 8.57581 10.3656 7.50396L10.1587 4.68094C10.1077 3.99187 10.4976 3.34631 11.1302 3.0688L17.2116 0.408162C17.8371 0.133941 18.5674 0.280567 19.0404 0.773039L21 2.81624C22.6599 2.58008 24.3486 2.53714 26.0405 2.68705L27.8709 0.5651C28.3194 0.0438469 29.0486 -0.138592 29.691 0.109566L35.881 2.49843C36.526 2.74715 36.943 3.37537 36.9229 4.06603L36.8399 6.88089C38.2006 7.88112 39.4261 9.0485 40.4974 10.3658L43.3198 10.1584C44.0035 10.1047 44.6545 10.4973 44.9314 11.1299L47.592 17.2113C47.8663 17.8368 47.7202 18.5671 47.2272 19.0401L45.184 20.9997C45.4202 22.6591 45.4631 24.3478 45.3127 26.0402ZM40.3373 33.5573L42.8774 33.6323L44.4385 29.5888L42.5381 27.949C42.1238 27.5922 41.9165 27.0509 41.9859 26.5084C42.2363 24.557 42.1857 22.6066 41.8372 20.7121C41.7378 20.1735 41.9165 19.6208 42.3117 19.2417L44.1519 17.4765L42.4088 13.4931L39.8661 13.6799C39.304 13.7244 38.7709 13.4741 38.4385 13.0262C37.2814 11.4661 35.8827 10.1342 34.282 9.06669C33.815 8.75497 33.5408 8.22509 33.5571 7.66362L33.632 5.12354L29.5879 3.56249L27.9481 5.46291C27.5918 5.87607 27.0543 6.0857 26.5075 6.01454C24.5571 5.76423 22.6057 5.81476 20.7112 6.16332C20.172 6.26429 19.6198 6.08401 19.2408 5.68876L17.4756 3.84862L13.4922 5.59107L13.679 8.13387C13.7202 8.69047 13.4732 9.22906 13.0252 9.56141C11.4647 10.719 10.1328 12.1172 9.06577 13.7179C8.75405 14.1854 8.22202 14.4613 7.6627 14.4423L5.12262 14.3673L3.56205 18.4126L5.46247 20.0524C5.87619 20.4097 6.08357 20.9505 6.0141 21.493C5.76435 23.4439 5.81431 25.3937 6.16288 27.2893C6.26226 27.8279 6.08357 28.3806 5.68831 28.7597L3.84818 30.5249L5.59119 34.5087L8.13399 34.3214C8.68899 34.2818 9.22918 34.5272 9.56153 34.9757C10.7192 36.5357 12.1179 37.8676 13.7181 38.9346C14.1855 39.2458 14.4592 39.7768 14.4424 40.3377L14.368 42.8778L18.4122 44.4388L20.0519 42.5378C20.4092 42.1235 20.9517 41.9156 21.4925 41.9862C23.444 42.2371 25.3944 42.1865 27.2884 41.8374C27.8292 41.738 28.3798 41.9167 28.7593 42.312L30.5245 44.1521L34.5084 42.4091L34.3211 39.8663C34.2803 39.3103 34.5269 38.7711 34.9754 38.4388C36.5348 37.2817 37.8667 35.8829 38.9343 34.2822C39.2459 33.8153 39.7807 33.534 40.3373 33.5573ZM12.3255 24.0007C12.3255 17.5637 17.5626 12.3266 23.9997 12.3266C30.4368 12.3266 35.6738 17.5637 35.6738 24.0007C35.6738 30.4377 30.4372 35.6748 23.9997 35.6748C17.5626 35.6748 12.3255 30.4377 12.3255 24.0007ZM15.5834 24.0007C15.5834 28.6417 19.3588 32.417 23.9997 32.417C28.6406 32.417 32.4159 28.6417 32.4159 24.0007C32.4159 19.3598 28.6405 15.5845 23.9997 15.5845C19.3587 15.5845 15.5834 19.3599 15.5834 24.0007Z" fill="#2A3EA4"/>
</g>
<defs>
<clipPath id="clip0_50_210">
<rect width="48" height="48" fill="white"/>
</clipPath>
</defs>
</svg>
