<svg width="48" height="48" viewBox="0 0 48 48" fill="none" xmlns="http://www.w3.org/2000/svg">
<path d="M38.1429 20.8571H35C32.9169 20.8596 30.9199 21.6882 29.4469 23.1612C27.974 24.6342 27.1454 26.6312 27.1429 28.7143V38.1429C27.1429 39.3932 26.6462 40.5923 25.7621 41.4764C24.878 42.3605 23.6789 42.8571 22.4286 42.8571H17.7143C16.464 42.8571 15.2649 42.3605 14.3808 41.4764C13.4967 40.5923 13 39.3932 13 38.1429V30.2857C14.2503 30.2857 15.4494 29.789 16.3335 28.9049C17.2176 28.0208 17.7143 26.8217 17.7143 25.5714V22.4286C17.7143 22.416 17.7143 22.4066 17.7143 22.394C18.6873 21.6674 19.4779 20.7243 20.0234 19.6393C20.5689 18.5543 20.8543 17.3573 20.8571 16.1429V9.85714C20.8571 9.44037 20.6916 9.04068 20.3969 8.74598C20.1022 8.45128 19.7025 8.28571 19.2857 8.28571H17.7143V3.57143C17.7143 3.15466 17.5487 2.75496 17.254 2.46026C16.9593 2.16556 16.5596 2 16.1429 2C15.7261 2 15.3264 2.16556 15.0317 2.46026C14.737 2.75496 14.5714 3.15466 14.5714 3.57143V9.85714C14.5714 10.2739 14.737 10.6736 15.0317 10.9683C15.3264 11.263 15.7261 11.4286 16.1429 11.4286H17.7143V16.1429C17.7143 17.3932 17.2176 18.5923 16.3335 19.4764C15.4494 20.3605 14.2503 20.8571 13 20.8571H9.85714C8.60684 20.8571 7.40774 20.3605 6.52364 19.4764C5.63954 18.5923 5.14286 17.3932 5.14286 16.1429V11.4286H9.85714C10.2739 11.4286 10.6736 11.263 10.9683 10.9683C11.263 10.6736 11.4286 10.2739 11.4286 9.85714C11.4286 9.44037 11.263 9.04068 10.9683 8.74598C10.6736 8.45128 10.2739 8.28571 9.85714 8.28571H8.28571V3.57143C8.28571 3.15466 8.12015 2.75496 7.82545 2.46026C7.53075 2.16556 7.13105 2 6.71429 2C6.29752 2 5.89782 2.16556 5.60312 2.46026C5.30842 2.75496 5.14286 3.15466 5.14286 3.57143V8.28571H3.57143C3.15466 8.28571 2.75496 8.45128 2.46026 8.74598C2.16556 9.04068 2 9.44037 2 9.85714V16.1429C2.0028 17.3573 2.28825 18.5543 2.83375 19.6393C3.37924 20.7243 4.1698 21.6674 5.14286 22.394V22.4286V25.5714C5.14286 26.8217 5.63954 28.0208 6.52364 28.9049C7.40774 29.789 8.60684 30.2857 9.85714 30.2857V38.1429C9.85964 40.2259 10.6882 42.223 12.1612 43.6959C13.6342 45.1689 15.6312 45.9975 17.7143 46H22.4286C24.5116 45.9975 26.5087 45.1689 27.9817 43.6959C29.4546 42.223 30.2832 40.2259 30.2857 38.1429V28.7143C30.2857 27.464 30.7824 26.2649 31.6665 25.3808C32.5506 24.4967 33.7497 24 35 24H38.1429C39.3932 24 40.5923 24.4967 41.4764 25.3808C42.3605 26.2649 42.8571 27.464 42.8571 28.7143V44.4286C42.8571 44.8453 43.0227 45.245 43.3174 45.5397C43.6121 45.8344 44.0118 46 44.4286 46C44.8453 46 45.245 45.8344 45.5397 45.5397C45.8344 45.245 46 44.8453 46 44.4286V28.7143C45.9975 26.6312 45.1689 24.6342 43.6959 23.1612C42.223 21.6882 40.2259 20.8596 38.1429 20.8571ZM8.28571 25.5714V23.8429C8.80292 23.9479 9.32938 24.0005 9.85714 24H13C13.5278 24.0005 14.0542 23.9479 14.5714 23.8429V25.5714C14.5714 25.9882 14.4059 26.3879 14.1112 26.6826C13.8165 26.9773 13.4168 27.1429 13 27.1429H9.85714C9.44037 27.1429 9.04068 26.9773 8.74598 26.6826C8.45128 26.3879 8.28571 25.9882 8.28571 25.5714Z" fill="#2A3EA4"/>
</svg>
